# xmcd
#
# Track frame offsets: 
#        150
#        3889
#        48866
#        73576
#        106950
#        111618
#        164252
#        203252
#        271323
#
# Disc length: 4464 seconds
#
# Revision: 0
# Processed by: cddbd v1.5.2PL0 Copyright (c) Steve Scherf et al.
# Submitted via: ExactAudioCopy v0.95b3
#
DISCID=6f116e09
DTITLE=The Nice  - Amougies (Day 3) - 26 Oct 1969  FLAC
DYEAR=1900
DGENRE=
TTITLE0=Introduction
TTITLE1=Intermezzo from Karelia Suite
TTITLE2=Organ Improv
TTITLE3=Country Pie Brandenburger
TTITLE4=Piano Improv
TTITLE5=Hang On To A Dream
TTITLE6=Pathetique Symphony
TTITLE7=She Belongs To Me
TTITLE8=Rondo
EXTD=
EXTT0=
EXTT1=
EXTT2=
EXTT3=
EXTT4=
EXTT5=
EXTT6=
EXTT7=
EXTT8=
PLAYORDER=
